<?xml version="1.0" encoding="UTF-8" standalone="no"?>
<!DOCTYPE svg PUBLIC "-//W3C//DTD SVG 1.1//EN" "http://www.w3.org/Graphics/SVG/1.1/DTD/svg11.dtd">
<!-- Created with Vectornator (http://vectornator.io/) -->
<svg height="100%" stroke-miterlimit="10" style="fill-rule:nonzero;clip-rule:evenodd;stroke-linecap:round;stroke-linejoin:round;" version="1.1" viewBox="0 0 1024 1024" width="100%" xml:space="preserve" xmlns="http://www.w3.org/2000/svg" xmlns:vectornator="http://vectornator.io" xmlns:xlink="http://www.w3.org/1999/xlink">
<defs/>
<g id="Layer-1" vectornator:layerName="Layer 1">
<path d="M0 0L1024 0L1024 1024L0 1024L0 0Z" fill="#c61826" fill-rule="nonzero" opacity="1" stroke="none"/>
<path d="M61.7662 62L961.766 62L961.766 962L61.7662 962L61.7662 62Z" fill="#f4f1ea" fill-rule="nonzero" opacity="1" stroke="#590d08" stroke-linecap="butt" stroke-linejoin="round" stroke-width="8" vectornator:layerName="Rectangle"/>
<g opacity="1">
<path d="M214.889 903.394L809.111 903.357" fill="none" opacity="1" stroke="#000000" stroke-linecap="butt" stroke-linejoin="round" stroke-width="2"/>
<path d="M214.889 903.394L215.328 877.25L807.046 877.571L807.203 903.357" fill="none" opacity="1" stroke="#000000" stroke-linecap="butt" stroke-linejoin="round" stroke-width="2"/>
<path d="M266.115 877.277L266.324 903.391" fill="none" opacity="1" stroke="#000000" stroke-linecap="butt" stroke-linejoin="round" stroke-width="2"/>
<path d="M300.857 877.296L301.155 903.389" fill="none" opacity="1" stroke="#000000" stroke-linecap="butt" stroke-linejoin="round" stroke-width="2"/>
<path d="M345.721 877.32C345.66 883.837 346.016 903.389 346.016 903.389" fill="none" opacity="1" stroke="#000000" stroke-linecap="butt" stroke-linejoin="round" stroke-width="2"/>
<path d="M426.882 877.364L427.242 903.381" fill="none" opacity="1" stroke="#000000" stroke-linecap="butt" stroke-linejoin="round" stroke-width="2"/>
<path d="M508.208 877.408L508.277 903.376" fill="none" opacity="1" stroke="#000000" stroke-linecap="butt" stroke-linejoin="round" stroke-width="2"/>
<path d="M589.879 877.453L590.277 903.371" fill="none" opacity="1" stroke="#000000" stroke-linecap="butt" stroke-linejoin="round" stroke-width="2"/>
<path d="M671.896 877.498L671.947 903.365" fill="none" opacity="1" stroke="#000000" stroke-linecap="butt" stroke-linejoin="round" stroke-width="2"/>
<path d="M754.208 877.542L754.639 903.36" fill="none" opacity="1" stroke="#000000" stroke-linecap="butt" stroke-linejoin="round" stroke-width="2"/>
<path d="M218.78 877.251L218.957 851.764L802.652 851.495L802.809 877.568" fill="none" opacity="1" stroke="#000000" stroke-linecap="butt" stroke-linejoin="round" stroke-width="2"/>
<path d="M220.837 851.763L220.814 824.918L800.604 825.342L800.577 851.496" fill="none" opacity="1" stroke="#000000" stroke-linecap="butt" stroke-linejoin="round" stroke-width="2"/>
<path d="M222.59 824.919L226.272 488.908L273.859 489.571L270.936 824.954" fill="none" opacity="1" stroke="#000000" stroke-linecap="butt" stroke-linejoin="round" stroke-width="2"/>
<path d="M751.463 825.306L751.805 489.809L798.144 489.809L799.209 825.341" fill="none" opacity="1" stroke="#000000" stroke-linecap="butt" stroke-linejoin="round" stroke-width="2"/>
<path d="M799.123 798.514L751.49 798.666L688.731 822.857" fill="none" opacity="1" stroke="#000000" stroke-linecap="butt" stroke-linejoin="round" stroke-width="2"/>
<path d="M799.019 765.686L751.523 766.02L688.209 790.12" fill="none" opacity="1" stroke="#000000" stroke-linecap="butt" stroke-linejoin="round" stroke-width="2"/>
<path d="M798.914 732.397L751.557 732.762L688.09 757.784" fill="none" opacity="1" stroke="#000000" stroke-linecap="butt" stroke-linejoin="round" stroke-width="2"/>
<path d="M798.894 699.709L751.673 700.096L688.96 724.294" fill="none" opacity="1" stroke="#000000" stroke-linecap="butt" stroke-linejoin="round" stroke-width="2"/>
<path d="M798.706 666.897L751.625 666.636L688.09 690.855" fill="none" opacity="1" stroke="#000000" stroke-linecap="butt" stroke-linejoin="round" stroke-width="2"/>
<path d="M798.599 633.422L751.658 633.672L688.085 657.782" fill="none" opacity="1" stroke="#000000" stroke-linecap="butt" stroke-linejoin="round" stroke-width="2"/>
<path d="M798.5 602.011L751.69 602.366L687.324 626.468" fill="none" opacity="1" stroke="#000000" stroke-linecap="butt" stroke-linejoin="round" stroke-width="2"/>
<path d="M798.399 570.122L751.723 570.318L687.405 594.707" fill="none" opacity="1" stroke="#000000" stroke-linecap="butt" stroke-linejoin="round" stroke-width="2"/>
<path d="M798.294 537.328L751.756 537.389L687.468 562.075" fill="none" opacity="1" stroke="#000000" stroke-linecap="butt" stroke-linejoin="round" stroke-width="2"/>
<path d="M798.191 504.797L751.789 505.06L687.06 530.122" fill="none" opacity="1" stroke="#000000" stroke-linecap="butt" stroke-linejoin="round" stroke-width="2"/>
<path d="M614.671 851.582L614.858 877.466" fill="none" opacity="1" stroke="#000000" stroke-linecap="butt" stroke-linejoin="round" stroke-width="2"/>
<path d="M386.636 825.017L386.636 851.664" fill="none" opacity="1" stroke="#000000" stroke-linecap="butt" stroke-linejoin="round" stroke-width="2"/>
<path d="M310.687 825.026L310.561 851.722" fill="none" opacity="1" stroke="#000000" stroke-linecap="butt" stroke-linejoin="round" stroke-width="2"/>
<path d="M468.926 825.099L469.132 851.649" fill="none" opacity="1" stroke="#000000" stroke-linecap="butt" stroke-linejoin="round" stroke-width="2"/>
<path d="M550.316 825.159L550.316 851.611" fill="none" opacity="1" stroke="#000000" stroke-linecap="butt" stroke-linejoin="round" stroke-width="2"/>
<path d="M638.389 825.223L638.668 851.57" fill="none" opacity="1" stroke="#000000" stroke-linecap="butt" stroke-linejoin="round" stroke-width="2"/>
<path d="M713.602 825.278L713.525 851.536" fill="none" opacity="1" stroke="#000000" stroke-linecap="butt" stroke-linejoin="round" stroke-width="2"/>
<path d="M222.878 798.639L271.167 798.398L334.39 823.907" fill="none" opacity="1" stroke="#000000" stroke-linecap="butt" stroke-linejoin="round" stroke-width="2"/>
<path d="M223.24 765.594L271.451 765.793L337.165 792.625" fill="none" opacity="1" stroke="#000000" stroke-linecap="butt" stroke-linejoin="round" stroke-width="2"/>
<path d="M223.606 732.201L271.742 732.483L336.472 759.46" fill="none" opacity="1" stroke="#000000" stroke-linecap="butt" stroke-linejoin="round" stroke-width="2"/>
<path d="M223.976 698.426L272.036 698.74L336.635 725.558" fill="none" opacity="1" stroke="#000000" stroke-linecap="butt" stroke-linejoin="round" stroke-width="2"/>
<path d="M224.344 664.885L272.325 665.538L336.933 692.01" fill="none" opacity="1" stroke="#000000" stroke-linecap="butt" stroke-linejoin="round" stroke-width="2"/>
<path d="M224.704 632.015L272.615 632.316L336.596 659.373" fill="none" opacity="1" stroke="#000000" stroke-linecap="butt" stroke-linejoin="round" stroke-width="2"/>
<path d="M225.058 599.739L272.894 600.247L337.136 626.668" fill="none" opacity="1" stroke="#000000" stroke-linecap="butt" stroke-linejoin="round" stroke-width="2"/>
<path d="M225.414 567.239L273.174 568.119L337.621 594.266" fill="none" opacity="1" stroke="#000000" stroke-linecap="butt" stroke-linejoin="round" stroke-width="2"/>
<path d="M225.769 534.834L273.462 535.149L336.753 561.628" fill="none" opacity="1" stroke="#000000" stroke-linecap="butt" stroke-linejoin="round" stroke-width="2"/>
<path d="M226.109 503.82L273.732 504.155L337.816 529.742" fill="none" opacity="1" stroke="#000000" stroke-linecap="butt" stroke-linejoin="round" stroke-width="2"/>
<path d="M383.801 825.037L393.113 501.374C393.113 501.374 393.088 498.765 392.624 497.144C392.16 495.523 391.256 494.89 391.256 494.89" fill="none" opacity="1" stroke="#000000" stroke-linecap="butt" stroke-linejoin="round" stroke-width="2"/>
<path d="M393.113 501.374L443.612 501.71C443.612 501.71 443.55 498.73 443.99 497.533C444.561 495.977 445.594 495.385 445.594 495.385L391.256 494.89" fill="none" opacity="1" stroke="#000000" stroke-linecap="butt" stroke-linejoin="round" stroke-width="2"/>
<path d="M443.612 501.71L451.13 825.086" fill="none" opacity="1" stroke="#000000" stroke-linecap="butt" stroke-linejoin="round" stroke-width="2"/>
<path d="M398.188 494.954C398.188 494.954 399.013 495.358 399.397 496.974C399.781 498.59 399.724 501.418 399.724 501.418L393.4 825.044" fill="none" opacity="1" stroke="#000000" stroke-linecap="butt" stroke-linejoin="round" stroke-width="2"/>
<path d="M405.174 495.017C405.174 495.017 406.251 496.066 406.519 497.696C406.65 498.494 406.635 501.464 406.635 501.464L401.237 825.05" fill="none" opacity="1" stroke="#000000" stroke-linecap="butt" stroke-linejoin="round" stroke-width="2"/>
<path d="M391.24 566.474L445.121 566.59" fill="none" opacity="1" stroke="#000000" stroke-linecap="butt" stroke-linejoin="round" stroke-width="2"/>
<path d="M389.412 630.009L446.6 630.229" fill="none" opacity="1" stroke="#000000" stroke-linecap="butt" stroke-linejoin="round" stroke-width="2"/>
<path d="M386.466 732.409L448.983 732.718" fill="none" opacity="1" stroke="#000000" stroke-linecap="butt" stroke-linejoin="round" stroke-width="2"/>
<path d="M411.547 825.057L414.255 501.514C414.255 501.514 414.227 498.26 414.063 497.254C413.796 495.622 412.695 495.086 412.695 495.086" fill="none" opacity="1" stroke="#000000" stroke-linecap="butt" stroke-linejoin="round" stroke-width="2"/>
<path d="M423.74 825.066L423.359 501.575C423.359 501.575 423.29 497.678 423.422 496.937C423.711 495.315 425.02 495.198 425.02 495.198" fill="none" opacity="1" stroke="#000000" stroke-linecap="butt" stroke-linejoin="round" stroke-width="2"/>
<path d="M432.169 495.263C432.169 495.263 431.421 495.582 431.068 497.172C430.715 498.762 430.755 501.624 430.755 501.624L433.439 825.073" fill="none" opacity="1" stroke="#000000" stroke-linecap="butt" stroke-linejoin="round" stroke-width="2"/>
<path d="M438.749 495.323C438.749 495.323 437.957 495.384 437.5 496.973C437.041 498.568 436.87 501.665 436.87 501.665L441.946 825.08" fill="none" opacity="1" stroke="#000000" stroke-linecap="butt" stroke-linejoin="round" stroke-width="2"/>
<path d="M391.256 494.89C391.256 494.89 390.964 494.671 390.946 494.479C390.916 494.17 391.24 493.894 391.24 493.894L446.304 494.272C446.304 494.272 446.778 494.612 446.6 494.89C446.422 495.169 445.594 495.385 445.594 495.385" fill="none" opacity="1" stroke="#000000" stroke-linecap="butt" stroke-linejoin="round" stroke-width="2"/>
<path d="M391.24 493.894L390.664 492.881L446.816 493.127L446.304 494.272" fill="none" opacity="1" stroke="#000000" stroke-linecap="butt" stroke-linejoin="round" stroke-width="2"/>
<path d="M446.816 493.127C446.816 493.127 447.441 492.959 447.794 492.707C448.147 492.455 448.227 492.119 448.227 492.119L389.398 492.18C389.398 492.18 389.148 492.376 389.213 492.551C389.279 492.726 389.66 492.881 389.66 492.881L390.664 492.881" fill="none" opacity="1" stroke="#000000" stroke-linecap="butt" stroke-linejoin="round" stroke-width="2"/>
<path d="M389.398 492.18C389.398 492.18 379.078 484.967 378.742 483.178C378.359 481.136 380.421 479.476 380.421 479.476L456.252 479.476C456.252 479.476 458.29 481.893 457.854 483.134C457.175 485.065 448.227 492.119 448.227 492.119" fill="none" opacity="1" stroke="#000000" stroke-linecap="butt" stroke-linejoin="round" stroke-width="2"/>
<path d="M573.234 825.174L582.546 501.511C582.546 501.511 582.522 498.902 582.057 497.281C581.593 495.66 580.689 495.028 580.689 495.028" fill="none" opacity="1" stroke="#000000" stroke-linecap="butt" stroke-linejoin="round" stroke-width="2"/>
<path d="M582.546 501.511L633.046 501.847C633.046 501.847 632.983 498.867 633.423 497.67C633.994 496.114 635.027 495.522 635.027 495.522L580.689 495.028" fill="none" opacity="1" stroke="#000000" stroke-linecap="butt" stroke-linejoin="round" stroke-width="2"/>
<path d="M633.046 501.847L640.563 825.223" fill="none" opacity="1" stroke="#000000" stroke-linecap="butt" stroke-linejoin="round" stroke-width="2"/>
<path d="M587.621 495.091C587.621 495.091 588.446 495.495 588.83 497.111C589.215 498.727 589.158 501.555 589.158 501.555L582.833 825.181" fill="none" opacity="1" stroke="#000000" stroke-linecap="butt" stroke-linejoin="round" stroke-width="2"/>
<path d="M594.607 495.154C594.607 495.154 595.684 496.203 595.952 497.833C596.083 498.631 596.068 501.601 596.068 501.601L590.67 825.187" fill="none" opacity="1" stroke="#000000" stroke-linecap="butt" stroke-linejoin="round" stroke-width="2"/>
<path d="M580.673 566.611L634.554 566.728" fill="none" opacity="1" stroke="#000000" stroke-linecap="butt" stroke-linejoin="round" stroke-width="2"/>
<path d="M578.845 630.146L636.033 630.366" fill="none" opacity="1" stroke="#000000" stroke-linecap="butt" stroke-linejoin="round" stroke-width="2"/>
<path d="M575.899 732.546L638.416 732.855" fill="none" opacity="1" stroke="#000000" stroke-linecap="butt" stroke-linejoin="round" stroke-width="2"/>
<path d="M600.98 825.194L603.689 501.651C603.689 501.651 603.661 498.397 603.496 497.391C603.23 495.759 602.128 495.223 602.128 495.223" fill="none" opacity="1" stroke="#000000" stroke-linecap="butt" stroke-linejoin="round" stroke-width="2"/>
<path d="M613.173 825.203L612.792 501.712C612.792 501.712 612.723 497.815 612.855 497.074C613.144 495.452 614.453 495.335 614.453 495.335" fill="none" opacity="1" stroke="#000000" stroke-linecap="butt" stroke-linejoin="round" stroke-width="2"/>
<path d="M621.602 495.4C621.602 495.4 620.855 495.719 620.501 497.309C620.148 498.899 620.189 501.761 620.189 501.761L622.872 825.21" fill="none" opacity="1" stroke="#000000" stroke-linecap="butt" stroke-linejoin="round" stroke-width="2"/>
<path d="M628.182 495.46C628.182 495.46 627.39 495.521 626.933 497.11C626.474 498.705 626.304 501.802 626.304 501.802L631.379 825.217" fill="none" opacity="1" stroke="#000000" stroke-linecap="butt" stroke-linejoin="round" stroke-width="2"/>
<path d="M580.689 495.028C580.689 495.028 580.398 494.808 580.379 494.616C580.35 494.307 580.673 494.031 580.673 494.031L635.737 494.409C635.737 494.409 636.211 494.749 636.033 495.028C635.856 495.306 635.027 495.522 635.027 495.522" fill="none" opacity="1" stroke="#000000" stroke-linecap="butt" stroke-linejoin="round" stroke-width="2"/>
<path d="M580.673 494.031L580.097 493.018L636.249 493.264L635.737 494.409" fill="none" opacity="1" stroke="#000000" stroke-linecap="butt" stroke-linejoin="round" stroke-width="2"/>
<path d="M636.249 493.264C636.249 493.264 636.875 493.096 637.228 492.844C637.58 492.592 637.661 492.256 637.661 492.256L578.831 492.318C578.831 492.318 578.581 492.513 578.647 492.688C578.712 492.863 579.093 493.018 579.093 493.018L580.097 493.018" fill="none" opacity="1" stroke="#000000" stroke-linecap="butt" stroke-linejoin="round" stroke-width="2"/>
<path d="M578.831 492.318C578.831 492.318 568.511 485.104 568.175 483.315C567.792 481.273 569.854 479.613 569.854 479.613L645.685 479.613C645.685 479.613 647.724 482.03 647.287 483.271C646.608 485.202 637.661 492.256 637.661 492.256" fill="none" opacity="1" stroke="#000000" stroke-linecap="butt" stroke-linejoin="round" stroke-width="2"/>
<path d="M804.368 465.453L219.661 463.824" fill="none" opacity="1" stroke="#000000" stroke-linecap="butt" stroke-linejoin="round" stroke-width="2"/>
<path d="M456.252 479.476L458.671 479.476L458.909 464.514" fill="none" opacity="1" stroke="#000000" stroke-linecap="butt" stroke-linejoin="round" stroke-width="2"/>
<path d="M569.854 479.613L568.128 479.613L568.021 464.811" fill="none" opacity="1" stroke="#000000" stroke-linecap="butt" stroke-linejoin="round" stroke-width="2"/>
<path d="M645.685 479.613L648.22 479.613L648.085 465.028" fill="none" opacity="1" stroke="#000000" stroke-linecap="butt" stroke-linejoin="round" stroke-width="2"/>
<path d="M380.421 479.476L378.077 479.476L378.024 464.295" fill="none" opacity="1" stroke="#000000" stroke-linecap="butt" stroke-linejoin="round" stroke-width="2"/>
<path d="M751.805 489.809L750.439 489.809L750.304 481.31L798.971 481.186L799.019 489.809L798.144 489.809" fill="none" opacity="1" stroke="#000000" stroke-linecap="butt" stroke-linejoin="round" stroke-width="2"/>
<path d="M750.304 481.31C750.304 481.31 749.933 481.017 749.923 480.711C749.913 480.404 750.264 480.084 750.264 480.084L798.924 480.097C798.924 480.097 799.44 480.35 799.452 480.622C799.463 480.895 798.971 481.186 798.971 481.186" fill="none" opacity="1" stroke="#000000" stroke-linecap="butt" stroke-linejoin="round" stroke-width="2"/>
<path d="M750.264 480.084L750.304 477.785L798.91 477.6L798.924 480.097" fill="none" opacity="1" stroke="#000000" stroke-linecap="butt" stroke-linejoin="round" stroke-width="2"/>
<path d="M798.91 477.6L798.544 476.633L750.706 476.881L750.304 477.785" fill="none" opacity="1" stroke="#000000" stroke-linecap="butt" stroke-linejoin="round" stroke-width="2"/>
<path d="M750.706 476.881C750.706 476.881 750.412 475.895 749.922 475.04C749.433 474.184 748.749 473.459 748.749 473.459L801.072 473.555C801.072 473.555 799.856 474.575 799.452 474.946C799.01 475.353 798.544 476.633 798.544 476.633" fill="none" opacity="1" stroke="#000000" stroke-linecap="butt" stroke-linejoin="round" stroke-width="2"/>
<path d="M748.749 473.459C748.749 473.459 747.619 472.84 747.534 471.995C747.45 471.15 748.411 470.079 748.411 470.079L801.072 470.096L801.072 470.096" fill="none" opacity="1" stroke="#000000" stroke-linecap="butt" stroke-linejoin="round" stroke-width="2"/>
<path d="M801.072 473.555C801.072 473.555 802.2 472.75 802.2 471.885C802.2 471.021 801.072 470.096 801.072 470.096" fill="none" opacity="1" stroke="#000000" stroke-linecap="butt" stroke-linejoin="round" stroke-width="2"/>
<path d="M747.771 471.025L648.139 470.91" fill="none" opacity="1" stroke="#000000" stroke-linecap="butt" stroke-linejoin="round" stroke-width="2"/>
<path d="M801.072 470.096L803.113 470.096L803.181 466.888L745.996 466.719L745.937 470.079L748.411 470.079" fill="none" opacity="1" stroke="#000000" stroke-linecap="butt" stroke-linejoin="round" stroke-width="2"/>
<path d="M803.181 466.888L803.867 466.885L803.868 465.452" fill="none" opacity="1" stroke="#000000" stroke-linecap="butt" stroke-linejoin="round" stroke-width="2"/>
<path d="M745.996 466.719L744.857 466.719L744.861 465.291" fill="none" opacity="1" stroke="#000000" stroke-linecap="butt" stroke-linejoin="round" stroke-width="2"/>
<path d="M418.399 464.404L418.18 404.108L223.349 403.394L223.24 408.354L227.121 408.344L226.77 463.884" fill="none" opacity="1" stroke="#000000" stroke-linecap="butt" stroke-linejoin="round" stroke-width="2"/>
<path d="M227.121 408.344L418.198 409.163" fill="none" opacity="1" stroke="#000000" stroke-linecap="butt" stroke-linejoin="round" stroke-width="2"/>
<path d="M609.255 464.923L609.073 404.409L418.18 404.108L418.198 409.163L609.087 409.164L801.636 409.725L801.702 404.935L801.71 404.315L609.073 404.409" fill="none" opacity="1" stroke="#000000" stroke-linecap="butt" stroke-linejoin="round" stroke-width="2"/>
<path d="M796.991 465.433L797.048 409.712" fill="none" opacity="1" stroke="#000000" stroke-linecap="butt" stroke-linejoin="round" stroke-width="2"/>
<path d="M378.046 470.422L277.488 469.703" fill="none" opacity="1" stroke="#000000" stroke-linecap="butt" stroke-linejoin="round" stroke-width="2"/>
<path d="M220.209 463.826L220.244 465.613L279.746 465.454L279.772 463.992" fill="none" opacity="1" stroke="#000000" stroke-linecap="butt" stroke-linejoin="round" stroke-width="2"/>
<path d="M221.772 465.609L221.764 468.433L277.953 468.903L277.972 465.458" fill="none" opacity="1" stroke="#000000" stroke-linecap="butt" stroke-linejoin="round" stroke-width="2"/>
<path d="M276.438 468.89C276.438 468.89 277.681 469.599 277.972 470.422C278.263 471.245 277.601 472.181 277.601 472.181L223.404 471.715C223.404 471.715 222.238 471.723 222.238 470.079C222.238 469.255 223.017 468.443 223.017 468.443" fill="none" opacity="1" stroke="#000000" stroke-linecap="butt" stroke-linejoin="round" stroke-width="2"/>
<path d="M226.272 488.908L225.093 488.884L225.178 480.646L274.671 481.115L274.542 489.575L273.859 489.571" fill="none" opacity="1" stroke="#000000" stroke-linecap="butt" stroke-linejoin="round" stroke-width="2"/>
<path d="M225.178 480.646C225.178 480.646 224.587 480.223 224.55 479.917C224.512 479.61 225.029 479.422 225.029 479.422L274.693 479.869C274.693 479.869 275.252 480.198 275.246 480.51C275.24 480.821 274.671 481.115 274.671 481.115" fill="none" opacity="1" stroke="#000000" stroke-linecap="butt" stroke-linejoin="round" stroke-width="2"/>
<path d="M225.029 479.422C225.029 479.422 225.015 478.093 225.058 477.209C225.101 476.325 225.201 475.886 225.201 475.886L274.389 476.617C274.389 476.617 274.595 477.119 274.671 477.932C274.747 478.745 274.693 479.869 274.693 479.869" fill="none" opacity="1" stroke="#000000" stroke-linecap="butt" stroke-linejoin="round" stroke-width="2"/>
<path d="M226.197 475.901C226.197 475.901 226.193 475.71 226.132 475.507C226.072 475.305 225.956 475.09 225.956 475.09L274.671 475.886C274.671 475.886 274.537 476.074 274.467 476.257C274.397 476.44 274.389 476.617 274.389 476.617" fill="none" opacity="1" stroke="#000000" stroke-linecap="butt" stroke-linejoin="round" stroke-width="2"/>
<path d="M226.109 475.09L223.404 471.715" fill="none" opacity="1" stroke="#000000" stroke-linecap="butt" stroke-linejoin="round" stroke-width="2"/>
<path d="M274.671 475.886L277.601 472.181" fill="none" opacity="1" stroke="#000000" stroke-linecap="butt" stroke-linejoin="round" stroke-width="2"/>
<path d="M609.099 409.712L613.212 409.712L613.212 416.293L609.099 416.293L609.099 409.712ZM625.879 409.712L629.992 409.712L629.992 416.293L625.879 416.293L625.879 409.712ZM642.413 409.712L646.526 409.712L646.526 416.293L642.413 416.293L642.413 409.712ZM660.509 409.712L664.622 409.712L664.622 416.293L660.509 416.293L660.509 409.712ZM675.727 409.712L679.84 409.712L679.84 416.293L675.727 416.293L675.727 409.712Z" fill="none" opacity="1" stroke="#000000" stroke-linecap="butt" stroke-linejoin="miter" stroke-width="2"/>
<path d="M479.575 409.163L483.688 409.163L483.688 415.744L479.575 415.744L479.575 409.163ZM496.356 409.163L500.469 409.163L500.469 415.744L496.356 415.744L496.356 409.163ZM512.889 409.163L517.002 409.163L517.002 415.744L512.889 415.744L512.889 409.163ZM530.986 409.163L535.099 409.163L535.099 415.744L530.986 415.744L530.986 409.163ZM546.204 409.163L550.316 409.163L550.316 415.744L546.204 415.744L546.204 409.163Z" fill="none" opacity="1" stroke="#000000" stroke-linecap="butt" stroke-linejoin="miter" stroke-width="2"/>
<path d="M347.265 409.163L351.378 409.163L351.378 415.744L347.265 415.744L347.265 409.163ZM364.045 409.163L368.158 409.163L368.158 415.744L364.045 415.744L364.045 409.163ZM380.579 409.163L384.692 409.163L384.692 415.744L380.579 415.744L380.579 409.163ZM398.675 409.163L402.788 409.163L402.788 415.744L398.675 415.744L398.675 409.163ZM413.893 409.163L418.006 409.163L418.006 415.744L413.893 415.744L413.893 409.163Z" fill="none" opacity="1" stroke="#000000" stroke-linecap="butt" stroke-linejoin="miter" stroke-width="2"/>
<path d="M227.121 408.344L231.234 408.344L231.234 414.925L227.121 414.925L227.121 408.344ZM243.902 408.344L248.014 408.344L248.014 414.925L243.902 414.925L243.902 408.344ZM260.435 408.344L264.548 408.344L264.548 414.925L260.435 414.925L260.435 408.344ZM278.532 408.344L282.645 408.344L282.645 414.925L278.532 414.925L278.532 408.344ZM293.749 408.344L297.862 408.344L297.862 414.925L293.749 414.925L293.749 408.344Z" fill="none" opacity="1" stroke="#000000" stroke-linecap="butt" stroke-linejoin="miter" stroke-width="2"/>
<path d="M726.307 409.712L730.42 409.712L730.42 416.293L726.307 416.293L726.307 409.712ZM743.088 409.712L747.201 409.712L747.201 416.293L743.088 416.293L743.088 409.712ZM759.622 409.712L763.734 409.712L763.734 416.293L759.622 416.293L759.622 409.712ZM777.718 409.712L781.831 409.712L781.831 416.293L777.718 416.293L777.718 409.712ZM792.936 409.712L797.048 409.712L797.048 416.293L792.936 416.293L792.936 409.712Z" fill="none" opacity="1" stroke="#000000" stroke-linecap="butt" stroke-linejoin="miter" stroke-width="2"/>
</g>
<g opacity="1">
<path d="M223.264 246.999L153.349 246.999L135.156 286.663L108.608 286.663L189.417 113.092L267.371 286.663L240.399 286.663L223.264 246.999ZM213.216 223.835L188.994 168.305L163.609 223.835L213.216 223.835Z" fill="#000000" fill-rule="nonzero" opacity="1" stroke="none"/>
<path d="M524.556 118.222L524.556 281.533L499.911 281.533L499.911 118.222L524.556 118.222Z" fill="#000000" fill-rule="nonzero" opacity="1" stroke="none"/>
<path d="M789.101 281.533L789.101 118.222L823.371 118.222C839.801 118.222 852.775 119.844 862.295 123.088C872.519 126.261 881.792 131.655 890.113 139.271C906.966 154.643 915.392 174.845 915.392 199.878C915.392 224.981 906.613 245.289 889.055 260.802C880.241 268.559 871.003 273.953 861.343 276.985C852.317 280.017 839.519 281.533 822.948 281.533L789.101 281.533ZM813.746 258.369L824.852 258.369C835.923 258.369 845.125 257.206 852.458 254.879C859.792 252.411 866.42 248.497 872.343 243.138C884.472 232.068 890.536 217.647 890.536 199.878C890.536 181.967 884.542 167.441 872.555 156.3C861.766 146.357 845.865 141.386 824.852 141.386L813.746 141.386L813.746 258.369Z" fill="#000000" fill-rule="nonzero" opacity="1" stroke="none"/>
</g>
</g>
</svg>
